<svg xmlns="http://www.w3.org/2000/svg" width="1200" height="675" viewBox="0 0 1200 675" role="img" aria-labelledby="title desc">
<title id="title">업무 문서 버전 관리 장면</title>
<desc id="desc">여러 문서 버전과 검토·승인 흐름, 보관 폴더, 최신 작업본을 보여주는 업무 버전 관리 에디토리얼 일러스트</desc>
<defs>
  <linearGradient id="bg" x1="0" y1="0" x2="0" y2="1"><stop offset="0" stop-color="#f4f6f9"/><stop offset="1" stop-color="#d8e0e8"/></linearGradient>
  <linearGradient id="desk" x1="0" y1="0" x2="1" y2="0"><stop offset="0" stop-color="#c9a273"/><stop offset="1" stop-color="#a77f56"/></linearGradient>
  <linearGradient id="screen" x1="0" y1="0" x2="1" y2="1"><stop offset="0" stop-color="#fbfcfd"/><stop offset="1" stop-color="#e9eff4"/></linearGradient>
  <filter id="shadow" x="-20%" y="-20%" width="140%" height="160%"><feDropShadow dx="0" dy="10" stdDeviation="12" flood-color="#2e3c48" flood-opacity=".2"/></filter>
</defs>

<rect width="1200" height="675" fill="url(#bg)"/>
<rect y="487" width="1200" height="188" fill="url(#desk)"/>
<rect y="472" width="1200" height="20" fill="#8f6d4c"/>

<g opacity=".7">
  <rect x="72" y="58" width="310" height="334" rx="26" fill="#ffffff"/>
  <rect x="445" y="58" width="310" height="334" rx="26" fill="#ffffff"/>
  <rect x="818" y="58" width="310" height="334" rx="26" fill="#ffffff"/>
</g>

<g filter="url(#shadow)">
  <g transform="translate(106 100)">
    <rect x="0" y="0" width="216" height="132" rx="18" fill="#ffffff"/>
    <path d="M177 0h39v39z" fill="#e5ebf0"/>
    <rect x="25" y="28" width="60" height="30" rx="11" fill="#dce4eb"/>
    <text x="55" y="50" text-anchor="middle" font-family="Arial, sans-serif" font-size="18" font-weight="700" fill="#718391">v01</text>
    <rect x="25" y="78" width="142" height="10" rx="5" fill="#aebbc5"/>
    <rect x="25" y="101" width="112" height="9" rx="5" fill="#d1d9df"/>
  </g>
  <g transform="translate(126 218)">
    <rect x="0" y="0" width="216" height="132" rx="18" fill="#ffffff"/>
    <path d="M177 0h39v39z" fill="#e5ebf0"/>
    <rect x="25" y="28" width="60" height="30" rx="11" fill="#d4e3eb"/>
    <text x="55" y="50" text-anchor="middle" font-family="Arial, sans-serif" font-size="18" font-weight="700" fill="#5e8296">v02</text>
    <rect x="25" y="78" width="142" height="10" rx="5" fill="#9db1bf"/>
    <rect x="25" y="101" width="126" height="9" rx="5" fill="#d1d9df"/>
  </g>
  <g transform="translate(147 336)">
    <rect x="0" y="0" width="216" height="132" rx="18" fill="#ffffff"/>
    <path d="M177 0h39v39z" fill="#e5ebf0"/>
    <rect x="25" y="28" width="60" height="30" rx="11" fill="#d4e7d9"/>
    <text x="55" y="50" text-anchor="middle" font-family="Arial, sans-serif" font-size="18" font-weight="700" fill="#4d8061">v03</text>
    <rect x="25" y="78" width="142" height="10" rx="5" fill="#8eaa9a"/>
    <rect x="25" y="101" width="118" height="9" rx="5" fill="#d1d9df"/>
  </g>
</g>

<g transform="translate(485 96)">
  <rect x="0" y="0" width="230" height="264" rx="24" fill="#f9fafc" filter="url(#shadow)"/>
  <g>
    <circle cx="58" cy="60" r="27" fill="#d9bd86"/>
    <rect x="98" y="40" width="98" height="40" rx="14" fill="#edf1f5"/>
    <text x="147" y="65" text-anchor="middle" font-family="Arial, sans-serif" font-size="14" font-weight="700" fill="#7a6a50">DRAFT</text>

    <circle cx="172" cy="132" r="27" fill="#8fb7ca"/>
    <rect x="37" y="112" width="96" height="40" rx="14" fill="#edf1f5"/>
    <text x="85" y="137" text-anchor="middle" font-family="Arial, sans-serif" font-size="14" font-weight="700" fill="#567487">REVIEW</text>

    <circle cx="58" cy="205" r="27" fill="#79a489"/>
    <path d="M46 205l9 9 17-21" fill="none" stroke="#fff" stroke-width="6" stroke-linecap="round" stroke-linejoin="round"/>
    <rect x="98" y="185" width="105" height="40" rx="14" fill="#edf1f5"/>
    <text x="150" y="210" text-anchor="middle" font-family="Arial, sans-serif" font-size="13" font-weight="700" fill="#557661">APPROVED</text>
  </g>
  <path d="M76 77c34 8 62 20 80 38" fill="none" stroke="#8596a4" stroke-width="6" stroke-linecap="round"/>
  <path d="M157 104l8 16-18-2" fill="none" stroke="#8596a4" stroke-width="6" stroke-linecap="round" stroke-linejoin="round"/>
  <path d="M157 153c-28 15-52 26-76 37" fill="none" stroke="#8596a4" stroke-width="6" stroke-linecap="round"/>
  <path d="M89 177l-12 16 19 1" fill="none" stroke="#8596a4" stroke-width="6" stroke-linecap="round" stroke-linejoin="round"/>
</g>

<g transform="translate(856 92)" filter="url(#shadow)">
  <rect x="0" y="0" width="228" height="282" rx="24" fill="#fafbfc"/>
  <g transform="translate(28 55)">
    <path d="M0 17h70l16 18h114v70H0z" fill="#d8b66e"/>
    <rect x="17" y="56" width="150" height="10" rx="5" fill="#f8edd2" opacity=".75"/>
  </g>
  <g transform="translate(28 126)">
    <path d="M0 17h70l16 18h114v70H0z" fill="#83aebe"/>
    <rect x="17" y="56" width="150" height="10" rx="5" fill="#eef6f8" opacity=".78"/>
  </g>
  <g transform="translate(28 197)">
    <path d="M0 17h70l16 18h114v70H0z" fill="#76a083"/>
    <rect x="17" y="56" width="150" height="10" rx="5" fill="#edf5ef" opacity=".78"/>
  </g>
</g>

<g filter="url(#shadow)">
  <rect x="333" y="410" width="552" height="214" rx="26" fill="#314454"/>
  <rect x="358" y="433" width="502" height="160" rx="18" fill="url(#screen)"/>
  <rect x="381" y="455" width="130" height="116" rx="14" fill="#e4eaf0"/>
  <rect x="401" y="477" width="90" height="15" rx="7" fill="#a9b5bf"/>
  <rect x="401" y="510" width="72" height="14" rx="7" fill="#a9b5bf"/>
  <rect x="401" y="543" width="84" height="14" rx="7" fill="#73a184"/>
  <rect x="540" y="452" width="287" height="120" rx="16" fill="#ffffff"/>
  <rect x="564" y="468" width="58" height="29" rx="10" fill="#d8e9dc"/>
  <text x="593" y="489" text-anchor="middle" font-family="Arial, sans-serif" font-size="16" font-weight="700" fill="#4e7d5f">v05</text>
  <rect x="564" y="515" width="210" height="10" rx="5" fill="#9caeba"/>
  <rect x="564" y="540" width="168" height="9" rx="5" fill="#d0d9e0"/>
  <path d="M304 624h610l54 31H250z" fill="#8795a0"/>
  <rect x="522" y="635" width="170" height="10" rx="5" fill="#63727e"/>
</g>

<g>
  <rect x="916" y="455" width="148" height="118" rx="15" fill="#f2da9d" transform="rotate(-5 990 514)" filter="url(#shadow)"/>
  <path d="M943 492h82M943 516h66M943 540h54" stroke="#a58248" stroke-width="6" stroke-linecap="round" transform="rotate(-5 990 514)"/>
  <path d="M1015 586l99 59" stroke="#425d72" stroke-width="11" stroke-linecap="round"/>
</g>

<g opacity=".86">
  <circle cx="1014" cy="50" r="23" fill="#dce9f0"/>
  <circle cx="1045" cy="43" r="31" fill="#dce9f0"/>
  <circle cx="1079" cy="57" r="22" fill="#dce9f0"/>
  <rect x="995" y="55" width="104" height="27" rx="13" fill="#dce9f0"/>
</g>

<g transform="translate(50 522)">
  <rect width="176" height="78" rx="18" fill="#f7f8fa" filter="url(#shadow)"/>
  <circle cx="34" cy="39" r="17" fill="#7aa187"/>
  <path d="M27 39l6 6 11-14" fill="none" stroke="#fff" stroke-width="5" stroke-linecap="round" stroke-linejoin="round"/>
  <rect x="63" y="23" width="82" height="10" rx="5" fill="#8799a6"/>
  <rect x="63" y="45" width="61" height="9" rx="5" fill="#c1cbd3"/>
</g>
</svg>