<svg xmlns="http://www.w3.org/2000/svg" width="1200" height="675"><rect width="1200" height="675" fill="#eef2ff"/><rect y="540" width="1200" height="135" fill="#d8dee8"/><rect x="120" y="135" width="520" height="330" rx="30" fill="#fff"/><rect x="160" y="175" width="440" height="42" rx="18" fill="#e2e8f0"/><rect x="160" y="250" width="320" height="18" rx="9" fill="#cbd5e1"/><rect x="160" y="290" width="390" height="18" rx="9" fill="#cbd5e1"/><rect x="160" y="350" width="190" height="75" rx="16" fill="#dbeafe"/><rect x="720" y="120" width="300" height="390" rx="28" fill="#fff"/><rect x="770" y="170" width="200" height="250" fill="#f8fafc" stroke="#cbd5e1" stroke-width="4"/><path d="M805 220h130M805 260h100M805 300h145M805 340h90" stroke="#94a3b8" stroke-width="12" stroke-linecap="round"/><circle cx="925" cy="455" r="42" fill="#dcfce7"/><path d="M905 455l14 14 28-32" fill="none" stroke="#22c55e" stroke-width="12" stroke-linecap="round" stroke-linejoin="round"/><path d="M600 320c70-18 95-20 130-8" fill="none" stroke="#4f46e5" stroke-width="14"/><path d="M710 288l35 26-38 16" fill="#4f46e5"/></svg>