<svg xmlns="http://www.w3.org/2000/svg" width="1200" height="675" viewBox="0 0 1200 675">
<defs><linearGradient id="bg" x1="0" y1="1" x2="1" y2="0"><stop offset="0" stop-color="#f8fafc"/><stop offset="1" stop-color="#ede9fe"/></linearGradient><filter id="ds"><feDropShadow dx="0" dy="12" stdDeviation="16" flood-opacity=".16"/></filter></defs>
<rect width="1200" height="675" fill="url(#bg)"/>
<rect x="130" y="105" width="390" height="470" rx="28" fill="#fff" filter="url(#ds)"/>
<path d="M390 105h130v130" fill="#f1f5f9"/><path d="M390 105v130h130" fill="none" stroke="#cbd5e1" stroke-width="3"/>
<rect x="185" y="180" width="170" height="32" rx="10" fill="#ef4444"/><text x="270" y="202" text-anchor="middle" font-family="Arial,sans-serif" font-size="22" font-weight="700" fill="#fff">PDF</text>
<rect x="185" y="260" width="270" height="14" rx="7" fill="#cbd5e1"/><rect x="185" y="292" width="235" height="14" rx="7" fill="#e2e8f0"/><rect x="185" y="324" width="255" height="14" rx="7" fill="#e2e8f0"/>
<rect x="185" y="382" width="116" height="86" rx="14" fill="#dbeafe"/><rect x="319" y="382" width="136" height="18" rx="9" fill="#cbd5e1"/><rect x="319" y="418" width="120" height="18" rx="9" fill="#e2e8f0"/><rect x="319" y="454" width="96" height="18" rx="9" fill="#e2e8f0"/>
<rect x="620" y="128" width="440" height="395" rx="34" fill="#0f172a" filter="url(#ds)"/>
<rect x="670" y="180" width="340" height="54" rx="16" fill="#1e293b"/><circle cx="704" cy="207" r="12" fill="#22c55e"/><rect x="732" y="197" width="185" height="10" rx="5" fill="#64748b"/><rect x="732" y="216" width="120" height="8" rx="4" fill="#475569"/>
<g><circle cx="710" cy="305" r="24" fill="#22c55e"/><path d="M699 305l8 8 15-18" fill="none" stroke="#fff" stroke-width="6" stroke-linecap="round" stroke-linejoin="round"/><rect x="750" y="296" width="210" height="14" rx="7" fill="#94a3b8"/></g>
<g><circle cx="710" cy="365" r="24" fill="#22c55e"/><path d="M699 365l8 8 15-18" fill="none" stroke="#fff" stroke-width="6" stroke-linecap="round" stroke-linejoin="round"/><rect x="750" y="356" width="175" height="14" rx="7" fill="#94a3b8"/></g>
<g><circle cx="710" cy="425" r="24" fill="#f59e0b"/><path d="M710 413v16M710 437v2" stroke="#fff" stroke-width="6" stroke-linecap="round"/><rect x="750" y="416" width="225" height="14" rx="7" fill="#94a3b8"/></g>
<path d="M535 340h65" stroke="#7c3aed" stroke-width="7" stroke-linecap="round"/><path d="M576 318l28 22-28 22" fill="none" stroke="#7c3aed" stroke-width="7" stroke-linecap="round" stroke-linejoin="round"/>
<rect x="750" y="560" width="290" height="58" rx="20" fill="#fff" filter="url(#ds)"/><path d="M790 589h210" stroke="#7c3aed" stroke-width="10" stroke-linecap="round"/>
</svg>